<svg width="7" height="10" viewBox="0 0 7 10" fill="none" xmlns="http://www.w3.org/2000/svg">
<path d="M-4.76837e-07 0.906564V8.58833C0.000262737 8.7593 0.0488272 8.92671 0.140096 9.07127C0.231366 9.21584 0.361624 9.33167 0.515862 9.40543C0.670099 9.47918 0.842038 9.50785 1.01186 9.48814C1.18169 9.46843 1.34249 9.40113 1.47573 9.29401L6.23656 5.45313C6.34196 5.36818 6.42699 5.2607 6.48541 5.13858C6.54383 5.01647 6.57415 4.88282 6.57415 4.74745C6.57415 4.61208 6.54383 4.47843 6.48541 4.35631C6.42699 4.2342 6.34196 4.12672 6.23656 4.04177L1.47543 0.200886C1.34219 0.0935509 1.18134 0.026048 1.01142 0.006157C0.841487 -0.013734 0.669396 0.0147967 0.514978 0.0884608C0.360774 0.162444 0.230614 0.278497 0.1395 0.423241C0.0483866 0.567985 2.86102e-05 0.73553 -4.76837e-07 0.906564Z" fill="white"/>
</svg>
