<svg width="28" height="28" viewBox="0 0 28 28" fill="none" xmlns="http://www.w3.org/2000/svg">
<path d="M22.1667 12.8335H5.83333C4.54467 12.8335 3.5 13.8782 3.5 15.1668V23.3335C3.5 24.6222 4.54467 25.6668 5.83333 25.6668H22.1667C23.4553 25.6668 24.5 24.6222 24.5 23.3335V15.1668C24.5 13.8782 23.4553 12.8335 22.1667 12.8335Z" stroke="#00D492" stroke-width="2.33333" stroke-linecap="round" stroke-linejoin="round"/>
<path d="M8.16663 12.8335V8.16683C8.16663 6.61973 8.78121 5.136 9.87517 4.04204C10.9691 2.94808 12.4529 2.3335 14 2.3335C15.5471 2.3335 17.0308 2.94808 18.1247 4.04204C19.2187 5.136 19.8333 6.61973 19.8333 8.16683V12.8335" stroke="#00D492" stroke-width="2.33333" stroke-linecap="round" stroke-linejoin="round"/>
</svg>
