<svg width="28" height="28" viewBox="0 0 28 28" fill="none" xmlns="http://www.w3.org/2000/svg">
<path d="M18.6667 12.8333L21 15.1667L25.6667 10.5" stroke="#51A2FF" stroke-width="2.33333" stroke-linecap="round" stroke-linejoin="round"/>
<path d="M18.6666 24.5V22.1667C18.6666 20.929 18.175 19.742 17.2998 18.8668C16.4246 17.9917 15.2377 17.5 14 17.5H6.99998C5.7623 17.5 4.57532 17.9917 3.70015 18.8668C2.82498 19.742 2.33331 20.929 2.33331 22.1667V24.5" stroke="#51A2FF" stroke-width="2.33333" stroke-linecap="round" stroke-linejoin="round"/>
<path d="M10.5 12.8333C13.0773 12.8333 15.1666 10.744 15.1666 8.16667C15.1666 5.58934 13.0773 3.5 10.5 3.5C7.92265 3.5 5.83331 5.58934 5.83331 8.16667C5.83331 10.744 7.92265 12.8333 10.5 12.8333Z" stroke="#51A2FF" stroke-width="2.33333" stroke-linecap="round" stroke-linejoin="round"/>
</svg>
