<svg width="28" height="28" viewBox="0 0 28 28" fill="none" xmlns="http://www.w3.org/2000/svg">
<path d="M9.33334 25.6668C9.97767 25.6668 10.5 25.1445 10.5 24.5002C10.5 23.8558 9.97767 23.3335 9.33334 23.3335C8.68901 23.3335 8.16667 23.8558 8.16667 24.5002C8.16667 25.1445 8.68901 25.6668 9.33334 25.6668Z" stroke="#C27AFF" stroke-width="2.33333" stroke-linecap="round" stroke-linejoin="round"/>
<path d="M22.1667 25.6668C22.811 25.6668 23.3333 25.1445 23.3333 24.5002C23.3333 23.8558 22.811 23.3335 22.1667 23.3335C21.5223 23.3335 21 23.8558 21 24.5002C21 25.1445 21.5223 25.6668 22.1667 25.6668Z" stroke="#C27AFF" stroke-width="2.33333" stroke-linecap="round" stroke-linejoin="round"/>
<path d="M2.39166 2.3916H4.725L7.82833 16.8816C7.94217 17.4123 8.23744 17.8867 8.66333 18.2231C9.08921 18.5595 9.61905 18.737 10.1617 18.7249H21.5717C22.1027 18.7241 22.6176 18.5421 23.0312 18.2091C23.4448 17.876 23.7325 17.4119 23.8467 16.8933L25.7717 8.22493H5.97333" stroke="#C27AFF" stroke-width="2.33333" stroke-linecap="round" stroke-linejoin="round"/>
</svg>
