<svg width="125" height="136" viewBox="0 0 125 136" fill="none" xmlns="http://www.w3.org/2000/svg">
<g filter="url(#filter0_d_1_832)">
<path d="M62.2391 25L99.4782 46.5V89.5L62.2391 111L25 89.5V46.5L62.2391 25Z" fill="#F7FF00" fill-opacity="0.1" shape-rendering="crispEdges"/>
</g>
<g filter="url(#filter1_d_1_832)">
<path fill-rule="evenodd" clip-rule="evenodd" d="M63.0634 45.8164L52.9797 49.8499V55.7589C52.9797 58.2787 53.6093 60.7586 54.8112 62.9733C56.013 65.188 57.7492 67.0674 59.8619 68.4407L63.0634 70.5215L66.265 68.4407C68.3778 67.0673 70.114 65.1879 71.3158 62.9731C72.5177 60.7583 73.1472 58.2783 73.1471 55.7584V49.8499L63.0634 45.8164ZM69.8266 54.5963C69.9229 54.5033 69.9997 54.392 70.0525 54.269C70.1054 54.1459 70.1332 54.0136 70.1344 53.8797C70.1355 53.7458 70.11 53.6131 70.0593 53.4891C70.0086 53.3652 69.9337 53.2526 69.8391 53.1579C69.7444 53.0633 69.6318 52.9884 69.5079 52.9377C69.3839 52.887 69.2512 52.8615 69.1173 52.8626C68.9834 52.8638 68.8511 52.8916 68.728 52.9445C68.605 52.9973 68.4937 53.0741 68.4007 53.1704L62.0551 59.5161L59.7429 57.2039C59.6499 57.1076 59.5386 57.0308 59.4156 56.9779C59.2925 56.9251 59.1602 56.8973 59.0263 56.8961C58.8924 56.895 58.7597 56.9205 58.6357 56.9712C58.5118 57.0219 58.3992 57.0967 58.3045 57.1914C58.2099 57.2861 58.135 57.3987 58.0843 57.5226C58.0336 57.6465 58.0081 57.7793 58.0092 57.9132C58.0104 58.0471 58.0382 58.1794 58.0911 58.3024C58.1439 58.4255 58.2207 58.5367 58.317 58.6298L62.0551 62.3678L69.8266 54.5963Z" fill="#F7FF00" fill-opacity="0.9" shape-rendering="crispEdges"/>
</g>
<g filter="url(#filter2_d_1_832)">
<path d="M67.601 78.5714C67.601 76.7059 68.1944 74.8999 69.2779 73.4085C69.5294 73.0664 69.8058 72.7434 70.1048 72.442L75.9503 66.5531C76.1217 66.38 76.3247 66.2414 76.5483 66.1447C76.6778 66.0918 76.8114 66.0514 76.9466 66.0227C77.3477 65.9455 77.763 65.9988 78.1316 66.1749C78.5001 66.351 78.8026 66.6406 78.9945 67.0011C79.1865 67.3617 79.2579 67.7743 79.1982 68.1784C79.1385 68.5825 78.9508 68.9568 78.6628 69.2465L74.6798 73.2588C74.6331 73.3058 74.5962 73.3615 74.5711 73.4228C74.546 73.4841 74.5332 73.5497 74.5334 73.6159C74.5337 73.6822 74.547 73.7477 74.5726 73.8088C74.5982 73.8698 74.6355 73.9253 74.6825 73.9719C74.7295 74.0186 74.7853 74.0555 74.8466 74.0806C74.9078 74.1057 74.9735 74.1185 75.0397 74.1183C75.1059 74.118 75.1714 74.1047 75.2325 74.0791C75.2936 74.0535 75.349 74.0162 75.3957 73.9692L79.3788 69.9564C79.8736 69.4575 80.172 68.797 80.2192 68.096C80.2665 67.3949 80.0594 66.7004 79.6359 66.1397V57.6971C79.6359 57.0867 79.8784 56.5013 80.31 56.0696C80.7416 55.638 81.3271 55.3955 81.9375 55.3955C82.5479 55.3955 83.1333 55.638 83.565 56.0696C83.9966 56.5013 84.2391 57.0867 84.2391 57.6971V72.2272C84.2391 75.2493 83.0593 78.1519 80.9503 80.3174L80.0922 81.1987C79.1826 80.7025 78.1416 80.5004 77.1124 80.6204L67.601 81.7079V78.5714ZM77.2269 81.6227C77.7916 81.558 78.3635 81.6134 78.9052 81.7853C79.447 81.9572 79.9463 82.2417 80.3703 82.6201C80.7944 82.9985 81.1337 83.4622 81.366 83.9809C81.5983 84.4996 81.7183 85.0616 81.7182 85.63V86.1513C81.7182 87.221 81.2932 88.247 80.5368 89.0034C79.7804 89.7598 78.7544 90.1848 77.6847 90.1848H67.8022C66.8496 90.1846 65.9332 89.82 65.2409 89.1658C64.5485 88.5116 64.1326 87.6174 64.0785 86.6664C64.0243 85.7154 64.336 84.7797 64.9496 84.0511C65.5632 83.3226 66.4323 82.8564 67.3787 82.748L77.2269 81.6227ZM47.4336 90.1848C46.3639 90.1848 45.3379 89.7598 44.5815 89.0034C43.8251 88.247 43.4001 87.221 43.4001 86.1513V85.63C43.4 85.0616 43.52 84.4996 43.7523 83.9809C43.9846 83.4622 44.3239 82.9985 44.748 82.6201C45.172 82.2417 45.6713 81.9572 46.2131 81.7853C46.7548 81.6134 47.3268 81.558 47.8914 81.6227L57.7397 82.748C58.686 82.8564 59.5551 83.3226 60.1687 84.0511C60.7823 84.7797 61.094 85.7154 61.0398 86.6664C60.9857 87.6174 60.5698 88.5116 59.8774 89.1658C59.1851 89.82 58.2687 90.1846 57.3161 90.1848H47.4336ZM57.5173 78.5714C57.5173 76.7059 56.9239 74.8999 55.8404 73.4085C55.5889 73.0664 55.3125 72.7434 55.0135 72.442L49.168 66.5531C48.9966 66.38 48.7936 66.2414 48.57 66.1447C48.4412 66.0922 48.3079 66.0514 48.1717 66.0227C47.7706 65.9455 47.3553 65.9988 46.9867 66.1749C46.6182 66.351 46.3157 66.6406 46.1238 67.0011C45.9318 67.3617 45.8605 67.7743 45.9202 68.1784C45.9799 68.5825 46.1675 68.9568 46.4555 69.2465L50.4386 73.2588C50.4852 73.3058 50.5221 73.3615 50.5472 73.4228C50.5723 73.4841 50.5851 73.5497 50.5849 73.6159C50.5846 73.6822 50.5713 73.7477 50.5457 73.8088C50.5202 73.8698 50.4828 73.9253 50.4358 73.9719C50.3888 74.0186 50.333 74.0555 50.2718 74.0806C50.2105 74.1057 50.1448 74.1185 50.0786 74.1183C50.0124 74.118 49.9469 74.1047 49.8858 74.0791C49.8247 74.0535 49.7693 74.0162 49.7226 73.9692L45.7396 69.9564C45.2447 69.4575 44.9463 68.797 44.8991 68.096C44.8518 67.3949 45.0589 66.7004 45.4824 66.1397V57.6971C45.4824 57.0867 45.2399 56.5013 44.8083 56.0696C44.3767 55.638 43.7912 55.3955 43.1808 55.3955C42.5704 55.3955 41.985 55.638 41.5533 56.0696C41.1217 56.5013 40.8792 57.0867 40.8792 57.6971V72.2272C40.8792 75.2493 42.059 78.1519 44.168 80.3174L45.0261 81.1987C45.9357 80.7025 46.9767 80.5004 48.0059 80.6204L57.5173 81.7079V78.5714Z" fill="#F7FF00" fill-opacity="0.9" shape-rendering="crispEdges"/>
</g>
<defs>
<filter id="filter0_d_1_832" x="0" y="0" width="124.478" height="136" filterUnits="userSpaceOnUse" color-interpolation-filters="sRGB">
<feFlood flood-opacity="0" result="BackgroundImageFix"/>
<feColorMatrix in="SourceAlpha" type="matrix" values="0 0 0 0 0 0 0 0 0 0 0 0 0 0 0 0 0 0 127 0" result="hardAlpha"/>
<feOffset/>
<feGaussianBlur stdDeviation="12.5"/>
<feComposite in2="hardAlpha" operator="out"/>
<feColorMatrix type="matrix" values="0 0 0 0 0.968627 0 0 0 0 1 0 0 0 0 0 0 0 0 0.5 0"/>
<feBlend mode="normal" in2="BackgroundImageFix" result="effect1_dropShadow_1_832"/>
<feBlend mode="normal" in="SourceGraphic" in2="effect1_dropShadow_1_832" result="shape"/>
</filter>
<filter id="filter1_d_1_832" x="51.9797" y="44.8164" width="22.1674" height="26.7051" filterUnits="userSpaceOnUse" color-interpolation-filters="sRGB">
<feFlood flood-opacity="0" result="BackgroundImageFix"/>
<feColorMatrix in="SourceAlpha" type="matrix" values="0 0 0 0 0 0 0 0 0 0 0 0 0 0 0 0 0 0 127 0" result="hardAlpha"/>
<feOffset/>
<feGaussianBlur stdDeviation="0.5"/>
<feComposite in2="hardAlpha" operator="out"/>
<feColorMatrix type="matrix" values="0 0 0 0 0.968627 0 0 0 0 1 0 0 0 0 0 0 0 0 0.8 0"/>
<feBlend mode="normal" in2="BackgroundImageFix" result="effect1_dropShadow_1_832"/>
<feBlend mode="normal" in="SourceGraphic" in2="effect1_dropShadow_1_832" result="shape"/>
</filter>
<filter id="filter2_d_1_832" x="39.8792" y="54.3955" width="45.3599" height="36.7891" filterUnits="userSpaceOnUse" color-interpolation-filters="sRGB">
<feFlood flood-opacity="0" result="BackgroundImageFix"/>
<feColorMatrix in="SourceAlpha" type="matrix" values="0 0 0 0 0 0 0 0 0 0 0 0 0 0 0 0 0 0 127 0" result="hardAlpha"/>
<feOffset/>
<feGaussianBlur stdDeviation="0.5"/>
<feComposite in2="hardAlpha" operator="out"/>
<feColorMatrix type="matrix" values="0 0 0 0 0.968627 0 0 0 0 1 0 0 0 0 0 0 0 0 0.8 0"/>
<feBlend mode="normal" in2="BackgroundImageFix" result="effect1_dropShadow_1_832"/>
<feBlend mode="normal" in="SourceGraphic" in2="effect1_dropShadow_1_832" result="shape"/>
</filter>
</defs>
</svg>
