<svg width="115" height="126" viewBox="0 0 115 126" fill="none" xmlns="http://www.w3.org/2000/svg">
<g filter="url(#filter0_d_1_816)">
<path d="M57.2391 20L94.4782 41.5V84.5L57.2391 106L20 84.5V41.5L57.2391 20Z" fill="#1ED760" fill-opacity="0.1" shape-rendering="crispEdges"/>
</g>
<g filter="url(#filter1_d_1_816)">
<g clip-path="url(#clip0_1_816)">
<g filter="url(#filter2_d_1_816)">
<g filter="url(#filter3_d_1_816)">
<path d="M78.3224 82.167C78.3209 82.6749 78.1185 83.1615 77.7594 83.5206C77.4003 83.8797 76.9136 84.0821 76.4058 84.0837H36.7947C36.6254 84.0832 36.4632 84.0157 36.3434 83.896C36.2237 83.7763 36.1563 83.6141 36.1558 83.4448V43.8337C36.1558 43.3253 36.3577 42.8378 36.7171 42.4784C37.0766 42.1189 37.5641 41.917 38.0724 41.917C38.5808 41.917 39.0683 42.1189 39.4277 42.4784C39.7872 42.8378 39.9891 43.3253 39.9891 43.8337V80.2503H76.4058C76.9136 80.2518 77.4003 80.4543 77.7594 80.8134C78.1185 81.1725 78.3209 81.6591 78.3224 82.167Z" fill="#1ED760"/>
</g>
<g filter="url(#filter4_d_1_816)">
<path d="M61.7113 69.3896H57.878C57.5251 69.3896 57.2391 69.6757 57.2391 70.0285V78.3341C57.2391 78.6869 57.5251 78.973 57.878 78.973H61.7113C62.0642 78.973 62.3502 78.6869 62.3502 78.3341V70.0285C62.3502 69.6757 62.0642 69.3896 61.7113 69.3896Z" fill="#1ED760"/>
</g>
<g filter="url(#filter5_d_1_816)">
<path d="M51.4891 71.9443H47.6558C47.3029 71.9443 47.0169 72.2304 47.0169 72.5832V78.3332C47.0169 78.6861 47.3029 78.9721 47.6558 78.9721H51.4891C51.8419 78.9721 52.128 78.6861 52.128 78.3332V72.5832C52.128 72.2304 51.8419 71.9443 51.4891 71.9443Z" fill="#1ED760"/>
</g>
<g filter="url(#filter6_d_1_816)">
<path d="M71.9335 66.1943H68.1002C67.7473 66.1943 67.4613 66.4804 67.4613 66.8332V78.3332C67.4613 78.6861 67.7473 78.9721 68.1002 78.9721H71.9335C72.2864 78.9721 72.5724 78.6861 72.5724 78.3332V66.8332C72.5724 66.4804 72.2864 66.1943 71.9335 66.1943Z" fill="#1ED760"/>
</g>
<g filter="url(#filter7_d_1_816)">
<path d="M72.3552 54.535C72.2977 54.5925 71.8824 54.9567 71.1988 55.4742C69.231 56.9564 65.0463 59.6781 60.7338 59.7995C62.2058 59.7234 63.5924 59.0851 64.6073 58.0163C65.6223 56.9475 66.1882 55.5298 66.1882 54.0559C66.1882 52.5819 65.6223 51.1643 64.6073 50.0955C63.5924 49.0267 62.2058 48.3884 60.7338 48.3123C65.0463 48.4337 69.231 51.1553 71.1988 52.6375C71.8824 53.155 72.2977 53.5192 72.3552 53.5767C72.424 53.636 72.4791 53.7096 72.5166 53.7924C72.5541 53.8751 72.5731 53.965 72.5724 54.0559C72.5724 50.8364 71.2935 47.7489 69.017 45.4724C66.7405 43.1959 63.653 41.917 60.4335 41.917C57.2141 41.917 54.1265 43.1959 51.85 45.4724C49.5736 47.7489 48.2946 50.8364 48.2946 54.0559C48.2939 53.965 48.313 53.8751 48.3505 53.7924C48.388 53.7096 48.4431 53.636 48.5119 53.5767C48.5694 53.5192 48.9846 53.155 49.6683 52.6375C51.636 51.1553 55.8208 48.4337 60.1333 48.3123C58.6613 48.3884 57.2747 49.0267 56.2597 50.0955C55.2447 51.1643 54.6788 52.5819 54.6788 54.0559C54.6788 55.5298 55.2447 56.9475 56.2597 58.0163C57.2747 59.0851 58.6613 59.7234 60.1333 59.7995C55.8208 59.6781 51.636 56.9564 49.6683 55.4742C48.9846 54.9567 48.5694 54.5925 48.5119 54.535C48.4431 54.4757 48.388 54.4021 48.3505 54.3194C48.313 54.2366 48.2939 54.1467 48.2946 54.0559C48.2928 57.0534 49.4038 59.9448 51.4124 62.1698L50.1474 63.4348C49.6814 63.1688 49.141 63.0629 48.6091 63.1333C48.0772 63.2037 47.5829 63.4465 47.2021 63.8245L42.7299 68.2967C42.2827 68.7584 42.0349 69.3773 42.04 70.0201C42.0451 70.6628 42.3026 71.2778 42.7571 71.7323C43.2116 72.1868 43.8266 72.4444 44.4693 72.4494C45.1121 72.4545 45.7311 72.2067 46.1927 71.7595L50.6649 67.2873C51.0429 66.9065 51.2857 66.4123 51.3561 65.8803C51.4265 65.3484 51.3206 64.808 51.0546 64.342L52.3196 63.077C54.0629 64.6474 56.2242 65.6786 58.5416 66.0457C60.859 66.4128 63.2332 66.1001 65.3765 65.1454C67.5198 64.1907 69.3403 62.635 70.6175 60.6668C71.8947 58.6986 72.5737 56.4022 72.5724 54.0559C72.5731 54.1467 72.5541 54.2366 72.5166 54.3194C72.4791 54.4021 72.424 54.4757 72.3552 54.535ZM59.7946 44.4725C59.7951 44.3033 59.8626 44.141 59.9823 44.0213C60.102 43.9016 60.2642 43.8342 60.4335 43.8337C63.0059 43.8343 65.4826 44.809 67.3655 46.5617C67.4273 46.6183 67.4773 46.6865 67.5127 46.7624C67.5481 46.8383 67.5682 46.9205 67.5717 47.0042C67.5753 47.0879 67.5623 47.1714 67.5335 47.2501C67.5047 47.3288 67.4606 47.401 67.4038 47.4625C67.343 47.5269 67.2697 47.5782 67.1884 47.6133C67.1071 47.6485 67.0196 47.6667 66.931 47.667C66.7715 47.6667 66.6182 47.6049 66.503 47.4945C64.8514 45.9653 62.6843 45.1144 60.4335 45.1114C60.2642 45.1109 60.102 45.0435 59.9823 44.9238C59.8626 44.804 59.7951 44.6418 59.7946 44.4725ZM55.9613 54.0559C55.9613 53.1714 56.2236 52.3067 56.715 51.5712C57.2064 50.8358 57.9049 50.2626 58.7221 49.9241C59.5393 49.5856 60.4385 49.497 61.306 49.6696C62.1735 49.8422 62.9704 50.2681 63.5959 50.8935C64.2213 51.519 64.6473 52.3159 64.8198 53.1834C64.9924 54.0509 64.9038 54.9501 64.5653 55.7673C64.2268 56.5845 63.6536 57.283 62.9182 57.7744C62.1827 58.2658 61.3181 58.5281 60.4335 58.5281C59.8461 58.5285 59.2644 58.4131 58.7216 58.1885C58.1788 57.9639 57.6856 57.6345 57.2703 57.2192C56.8549 56.8038 56.5255 56.3106 56.3009 55.7678C56.0763 55.225 55.9609 54.6433 55.9613 54.0559Z" fill="#1ED760"/>
</g>
</g>
</g>
</g>
<defs>
<filter id="filter0_d_1_816" x="0" y="0" width="114.478" height="126" filterUnits="userSpaceOnUse" color-interpolation-filters="sRGB">
<feFlood flood-opacity="0" result="BackgroundImageFix"/>
<feColorMatrix in="SourceAlpha" type="matrix" values="0 0 0 0 0 0 0 0 0 0 0 0 0 0 0 0 0 0 127 0" result="hardAlpha"/>
<feOffset/>
<feGaussianBlur stdDeviation="10"/>
<feComposite in2="hardAlpha" operator="out"/>
<feColorMatrix type="matrix" values="0 0 0 0 0.117647 0 0 0 0 0.843137 0 0 0 0 0.376471 0 0 0 0.5 0"/>
<feBlend mode="normal" in2="BackgroundImageFix" result="effect1_dropShadow_1_816"/>
<feBlend mode="normal" in="SourceGraphic" in2="effect1_dropShadow_1_816" result="shape"/>
</filter>
<filter id="filter1_d_1_816" x="26.2391" y="32" width="62" height="62" filterUnits="userSpaceOnUse" color-interpolation-filters="sRGB">
<feFlood flood-opacity="0" result="BackgroundImageFix"/>
<feColorMatrix in="SourceAlpha" type="matrix" values="0 0 0 0 0 0 0 0 0 0 0 0 0 0 0 0 0 0 127 0" result="hardAlpha"/>
<feOffset/>
<feGaussianBlur stdDeviation="4"/>
<feComposite in2="hardAlpha" operator="out"/>
<feColorMatrix type="matrix" values="0 0 0 0 0 0 0 0 0 0 0 0 0 0 0 0 0 0 0.25 0"/>
<feBlend mode="normal" in2="BackgroundImageFix" result="effect1_dropShadow_1_816"/>
<feBlend mode="normal" in="SourceGraphic" in2="effect1_dropShadow_1_816" result="shape"/>
</filter>
<filter id="filter2_d_1_816" x="28.1558" y="33.917" width="58.1667" height="58.167" filterUnits="userSpaceOnUse" color-interpolation-filters="sRGB">
<feFlood flood-opacity="0" result="BackgroundImageFix"/>
<feColorMatrix in="SourceAlpha" type="matrix" values="0 0 0 0 0 0 0 0 0 0 0 0 0 0 0 0 0 0 127 0" result="hardAlpha"/>
<feOffset/>
<feGaussianBlur stdDeviation="4"/>
<feComposite in2="hardAlpha" operator="out"/>
<feColorMatrix type="matrix" values="0 0 0 0 0 0 0 0 0 0 0 0 0 0 0 0 0 0 0.25 0"/>
<feBlend mode="normal" in2="BackgroundImageFix" result="effect1_dropShadow_1_816"/>
<feBlend mode="normal" in="SourceGraphic" in2="effect1_dropShadow_1_816" result="shape"/>
</filter>
<filter id="filter3_d_1_816" x="33.1558" y="38.917" width="48.1667" height="48.167" filterUnits="userSpaceOnUse" color-interpolation-filters="sRGB">
<feFlood flood-opacity="0" result="BackgroundImageFix"/>
<feColorMatrix in="SourceAlpha" type="matrix" values="0 0 0 0 0 0 0 0 0 0 0 0 0 0 0 0 0 0 127 0" result="hardAlpha"/>
<feOffset/>
<feGaussianBlur stdDeviation="1.5"/>
<feComposite in2="hardAlpha" operator="out"/>
<feColorMatrix type="matrix" values="0 0 0 0 0.117647 0 0 0 0 0.843137 0 0 0 0 0.376471 0 0 0 1 0"/>
<feBlend mode="normal" in2="BackgroundImageFix" result="effect1_dropShadow_1_816"/>
<feBlend mode="normal" in="SourceGraphic" in2="effect1_dropShadow_1_816" result="shape"/>
</filter>
<filter id="filter4_d_1_816" x="54.2391" y="66.3896" width="11.1111" height="15.583" filterUnits="userSpaceOnUse" color-interpolation-filters="sRGB">
<feFlood flood-opacity="0" result="BackgroundImageFix"/>
<feColorMatrix in="SourceAlpha" type="matrix" values="0 0 0 0 0 0 0 0 0 0 0 0 0 0 0 0 0 0 127 0" result="hardAlpha"/>
<feOffset/>
<feGaussianBlur stdDeviation="1.5"/>
<feComposite in2="hardAlpha" operator="out"/>
<feColorMatrix type="matrix" values="0 0 0 0 0.117647 0 0 0 0 0.843137 0 0 0 0 0.376471 0 0 0 1 0"/>
<feBlend mode="normal" in2="BackgroundImageFix" result="effect1_dropShadow_1_816"/>
<feBlend mode="normal" in="SourceGraphic" in2="effect1_dropShadow_1_816" result="shape"/>
</filter>
<filter id="filter5_d_1_816" x="44.0169" y="68.9443" width="11.1111" height="13.0273" filterUnits="userSpaceOnUse" color-interpolation-filters="sRGB">
<feFlood flood-opacity="0" result="BackgroundImageFix"/>
<feColorMatrix in="SourceAlpha" type="matrix" values="0 0 0 0 0 0 0 0 0 0 0 0 0 0 0 0 0 0 127 0" result="hardAlpha"/>
<feOffset/>
<feGaussianBlur stdDeviation="1.5"/>
<feComposite in2="hardAlpha" operator="out"/>
<feColorMatrix type="matrix" values="0 0 0 0 0.117647 0 0 0 0 0.843137 0 0 0 0 0.376471 0 0 0 1 0"/>
<feBlend mode="normal" in2="BackgroundImageFix" result="effect1_dropShadow_1_816"/>
<feBlend mode="normal" in="SourceGraphic" in2="effect1_dropShadow_1_816" result="shape"/>
</filter>
<filter id="filter6_d_1_816" x="64.4613" y="63.1943" width="11.1111" height="18.7773" filterUnits="userSpaceOnUse" color-interpolation-filters="sRGB">
<feFlood flood-opacity="0" result="BackgroundImageFix"/>
<feColorMatrix in="SourceAlpha" type="matrix" values="0 0 0 0 0 0 0 0 0 0 0 0 0 0 0 0 0 0 127 0" result="hardAlpha"/>
<feOffset/>
<feGaussianBlur stdDeviation="1.5"/>
<feComposite in2="hardAlpha" operator="out"/>
<feColorMatrix type="matrix" values="0 0 0 0 0.117647 0 0 0 0 0.843137 0 0 0 0 0.376471 0 0 0 1 0"/>
<feBlend mode="normal" in2="BackgroundImageFix" result="effect1_dropShadow_1_816"/>
<feBlend mode="normal" in="SourceGraphic" in2="effect1_dropShadow_1_816" result="shape"/>
</filter>
<filter id="filter7_d_1_816" x="39.0399" y="38.917" width="36.5326" height="36.5322" filterUnits="userSpaceOnUse" color-interpolation-filters="sRGB">
<feFlood flood-opacity="0" result="BackgroundImageFix"/>
<feColorMatrix in="SourceAlpha" type="matrix" values="0 0 0 0 0 0 0 0 0 0 0 0 0 0 0 0 0 0 127 0" result="hardAlpha"/>
<feOffset/>
<feGaussianBlur stdDeviation="1.5"/>
<feComposite in2="hardAlpha" operator="out"/>
<feColorMatrix type="matrix" values="0 0 0 0 0.117647 0 0 0 0 0.843137 0 0 0 0 0.376471 0 0 0 1 0"/>
<feBlend mode="normal" in2="BackgroundImageFix" result="effect1_dropShadow_1_816"/>
<feBlend mode="normal" in="SourceGraphic" in2="effect1_dropShadow_1_816" result="shape"/>
</filter>
<clipPath id="clip0_1_816">
<rect width="46" height="46" fill="white" transform="translate(34.2391 40)"/>
</clipPath>
</defs>
</svg>
